<svg xmlns="http://www.w3.org/2000/svg" xmlns:xlink="http://www.w3.org/1999/xlink" width="360" height="528" viewBox="0 0 360 528">
    <defs>
        <path id="a" d="M.153 27.563l.178.002c1.916 0 3.382-.458 4.054-.85l23.421-13.64V.121H.153v27.441z"/>
        <path id="c" d="M.245 12.879l23.777 13.836c.651.38 2.046.821 3.876.848V.123H.245v12.756z"/>
        <path id="e" d="M.288 27.794l.177.001c1.916 0 3.382-.46 4.054-.856L27.94 13.184V.123H.288v27.671z"/>
        <path id="g" d="M.09 12.987l23.777 13.952c.651.383 2.047.828 3.876.855V.124H.09v12.863z"/>
        <path id="i" d="M.188 21.886l25.606 14.5c.496.28 1.413.595 2.62.748V.238H.189v21.648z"/>
        <path id="k" d="M.282 5.902l28.226 15.984V.239H.282v5.663z"/>
        <path id="m" d="M.25 20.424l.182.001c1.956 0 3.451-.454 4.138-.843l23.907-13.55V.123H.251v20.302z"/>
        <path id="o" d="M.05 5.838l24.27 13.744c.664.377 2.089.815 3.956.842V.12H.049v5.717z"/>
    </defs>
    <g fill="none" fill-rule="evenodd">
        <path fill="#0F7CE8" d="M253 214.933L226 231v-31.933L253 183z"/>
        <path fill="#40A0FF" d="M226.088 200L198 183.95 225.912 168 254 184.05z"/>
        <path fill="#1A82FF" d="M226 231l-28-16.067V183l28 16.067z"/>
        <path fill="#0F7CE8" d="M161 158.933L134 175v-31.933L161 127z"/>
        <path fill="#40A0FF" d="M134.088 143L106 126.95 133.912 111 162 127.05z"/>
        <path fill="#1A82FF" d="M134 175l-28-16.067V127l28 16.067z"/>
        <path fill="#0F7CE8" d="M207 203.933L180 220v-31.933L207 172z"/>
        <path fill="#1A82FF" d="M180 220l-28-16.067V172l28 16.067z"/>
        <path fill="#40A0FF" d="M180.088 189L152 172.95 179.912 157 208 173.05z"/>
        <path fill="#0F7CE8" d="M254 147.933L226 164v-31.933L254 116z"/>
        <path fill="#40A0FF" d="M226.088 133L198 116.95 225.912 101 254 117.05z"/>
        <path fill="#1A82FF" d="M226 164l-28-16.067V116l28 16.067zM180.405 85.506c-3.132 0-6.264-.687-8.64-2.06l-61.928-35.771c-2.317-1.338-3.496-3.092-3.554-4.855v87.864c.058 1.763 1.237 3.517 3.554 4.855l61.928 35.772c2.376 1.372 5.508 2.059 8.64 2.059V85.506z"/>
        <path fill="#0F7CE8" d="M180.405 85.506c3.134 0 6.268-.686 8.645-2.06l61.434-35.486c2.442-1.41 3.62-3.281 3.553-5.14v87.864c.067 1.86-1.11 3.73-3.553 5.14l-61.434 35.487c-2.377 1.373-5.51 2.06-8.645 2.059V85.506z"/>
        <path fill="#40A0FF" d="M250.484 37.976c4.754 2.746 4.754 7.239 0 9.984L189.05 83.446c-4.753 2.746-12.532 2.746-17.285 0l-61.928-35.771c-4.754-2.746-4.754-7.239 0-9.985L171.27 2.204c4.754-2.745 12.532-2.745 17.286 0l61.928 35.772z"/>
        <path fill="#111D28" fill-opacity=".1" d="M356.178 387.07c4.754 2.746 4.754 7.24 0 9.985l-61.434 35.486c-4.753 2.746-12.532 2.746-17.285 0L215.53 396.77c-4.753-2.746-4.753-7.24 0-9.985l61.434-35.486c4.754-2.746 12.532-2.746 17.286 0l61.928 35.772z"/>
        <path fill="#455D75" d="M286.1 323.688c-3.133 0-6.265-.686-8.641-2.059l-61.928-35.772c-2.317-1.337-3.496-3.091-3.554-4.855v87.865c.058 1.763 1.237 3.517 3.554 4.854l61.928 35.772c2.376 1.373 5.508 2.06 8.64 2.06v-87.865z"/>
        <path fill="#2E3F53" d="M286.1 323.688c3.133 0 6.267-.686 8.644-2.059l61.434-35.486c2.442-1.41 3.62-3.282 3.553-5.14v87.864c.067 1.859-1.111 3.73-3.553 5.14l-61.434 35.486c-2.377 1.374-5.511 2.06-8.645 2.06v-87.865z"/>
        <path fill="#6F8294" d="M356.178 276.158c4.754 2.746 4.754 7.24 0 9.985l-61.434 35.486c-4.753 2.746-12.532 2.746-17.285 0l-61.929-35.772c-4.753-2.745-4.753-7.238 0-9.984l61.434-35.486c4.754-2.746 12.532-2.746 17.286 0l61.928 35.771z"/>
        <path fill="#FFF" d="M247.52 330.698c.39.224.706.77.706 1.217 0 .447-.316.627-.706.402-.39-.225-.705-.77-.705-1.217 0-.447.316-.627.705-.402zm8.464 6.508c.39.225.705.77.705 1.217 0 .447-.316.627-.705.403-.39-.225-.705-.77-.705-1.218 0-.447.316-.627.705-.402zm-4.232-2.444c.39.225.705.77.705 1.217 0 .447-.316.627-.705.402-.39-.225-.705-.77-.705-1.217 0-.447.316-.627.705-.402zm-8.464-4.89c.39.226.706.77.706 1.218 0 .447-.316.627-.706.402-.389-.225-.705-.77-.705-1.217 0-.447.316-.627.705-.402zm-4.231-.824c.389.225.705.77.705 1.217 0 .447-.316.627-.705.402-.39-.225-.706-.77-.706-1.217 0-.447.316-.627.706-.402zm2.82 3.249c.39.225.706.77.706 1.217 0 .447-.316.627-.705.402-.39-.224-.706-.77-.706-1.217 0-.447.316-.627.706-.402zm16.928 9.777c.39.225.706.77.706 1.218 0 .447-.316.627-.706.402-.389-.225-.705-.77-.705-1.217 0-.447.316-.627.705-.403zm-5.642-3.259c.39.225.705.77.705 1.217 0 .447-.316.628-.705.403-.39-.225-.706-.77-.706-1.217 0-.447.316-.628.706-.403zm-5.643-3.259c.39.225.706.77.706 1.217 0 .447-.316.627-.706.403-.39-.225-.705-.77-.705-1.218 0-.447.316-.627.705-.402zm16.222 15.848l-31.033-17.926c0-6.46 6.174-9.389 15.517-3.992 9.342 5.396 15.516 15.458 15.516 21.918zm-3.576-.446l2.92 1.687c1.146.692 2.067 2.301 2.067 3.622 0 1.322-.921 1.867-2.067 1.236-.01-.006-29.823-17.23-29.862-17.26-1.078-.732-1.926-2.263-1.926-3.53 0-1.269.848-1.82 1.926-1.308.04.016 15.68 9.048 15.68 9.048 3.343 1.958 4.023 5.572 5.67 6.513 1.646.941 2.512-1.749 5.592-.008zm2.92 13.023c-.01-.006-29.823-17.23-29.862-17.26-1.078-.732-1.926-2.263-1.926-3.531 0-1.268.848-1.82 1.926-1.307.04.016 2.985 1.714 2.985 1.714 3.343 1.959 4.023 5.573 5.669 6.514 1.646.94 2.512-1.749 5.593-.009l15.615 9.02c1.146.693 2.067 2.302 2.067 3.623 0 1.322-.921 1.866-2.067 1.236zm.656 1.998c.522 3.51-.767 6.018-4.231 4.033-6.505-3.726-16.066-9.28-22.57-13.037-3.516-2.03-4.723-5.928-4.232-8.922l31.033 17.926zM309.008 361.532v-8.81l4.996-2.886v1.631l-3.127 1.806v1.895l2.34-1.351v1.632l-2.34 1.35v3.653zM320.251 352.452a4.436 4.436 0 0 0 .553-2.164c0-.77-.184-1.278-.553-1.526-.368-.247-.86-.194-1.475.162-.616.356-1.108.87-1.476 1.543a4.44 4.44 0 0 0-.552 2.164c0 .77.184 1.278.552 1.526.368.247.86.193 1.476-.162.616-.356 1.107-.87 1.475-1.543m-4.263 3.856c-.762-.414-1.142-1.273-1.142-2.578 0-1.306.38-2.603 1.142-3.892.762-1.289 1.695-2.253 2.799-2.89 1.104-.638 2.033-.75 2.787-.337.755.414 1.132 1.273 1.132 2.578 0 1.306-.38 2.604-1.137 3.895-.758 1.292-1.687 2.255-2.788 2.89-1.1.636-2.031.747-2.793.334M328.866 347.476a4.438 4.438 0 0 0 .552-2.164c0-.77-.184-1.278-.552-1.526-.368-.247-.86-.193-1.476.162-.616.356-1.107.87-1.475 1.543a4.44 4.44 0 0 0-.553 2.164c0 .77.185 1.278.553 1.526.368.248.86.194 1.475-.162.616-.356 1.108-.87 1.476-1.543m-4.263 3.856c-.762-.414-1.143-1.273-1.143-2.578 0-1.306.381-2.603 1.143-3.892.761-1.289 1.694-2.253 2.798-2.89 1.105-.638 2.034-.75 2.788-.337.755.414 1.131 1.273 1.131 2.578 0 1.306-.379 2.604-1.136 3.895-.758 1.291-1.688 2.255-2.788 2.89-1.1.636-2.032.747-2.793.334M334.393 345.238l.83-.48a4.428 4.428 0 0 0 1.684-1.726c.408-.737.612-1.529.612-2.374 0-.845-.204-1.4-.612-1.667-.408-.266-.97-.193-1.684.22l-.83.48v5.547zm.83-7.66c1.225-.706 2.23-.88 3.017-.518.788.36 1.182 1.192 1.182 2.493 0 1.3-.394 2.589-1.182 3.864-.787 1.274-1.792 2.265-3.017 2.972l-2.7 1.56v-8.81l2.7-1.56z"/>
        <path fill="#111D28" fill-opacity=".1" d="M144.474 387.07c4.754 2.746 4.754 7.24 0 9.985L83.04 432.541c-4.753 2.746-12.532 2.746-17.285 0L3.826 396.77c-4.753-2.746-4.753-7.24 0-9.985L65.26 351.3c4.754-2.746 12.532-2.746 17.286 0l61.928 35.772z"/>
        <path fill="#455D75" d="M74.395 323.688c-3.132 0-6.264-.686-8.64-2.059L3.827 285.857C1.51 284.52.33 282.766.273 281.002v87.865c.058 1.763 1.237 3.517 3.554 4.854l61.928 35.772c2.376 1.373 5.508 2.06 8.64 2.06v-87.865z"/>
        <path fill="#2E3F53" d="M74.395 323.688c3.134 0 6.268-.686 8.645-2.059l61.434-35.486c2.442-1.41 3.62-3.282 3.553-5.14v87.864c.067 1.859-1.111 3.73-3.553 5.14L83.04 409.493c-2.377 1.374-5.511 2.06-8.645 2.06v-87.865z"/>
        <path fill="#6F8294" d="M144.474 276.158c4.754 2.746 4.754 7.24 0 9.985L83.04 321.629c-4.753 2.746-12.532 2.746-17.285 0L3.826 285.857c-4.753-2.745-4.753-7.238 0-9.984l61.434-35.486c4.754-2.746 12.532-2.746 17.286 0l61.928 35.771z"/>
        <path fill="#FFF" d="M97.6 345.725a1.687 1.687 0 0 0-.575.545c-.149.228-.223.477-.223.744 0 .268.069.444.207.526.139.084.319.105.541.064.223-.04.47-.1.744-.178.273-.078.545-.139.814-.182.27-.042.516-.044.738-.005.223.038.403.17.541.396.139.225.208.552.208.978 0 .745-.264 1.536-.793 2.372a5.955 5.955 0 0 1-2.087 2.003c-.864.5-1.56.663-2.089.49-.528-.17-.792-.696-.792-1.575l1.99-1.149c.05.673.364.844.94.511.27-.156.48-.36.633-.61.154-.252.23-.504.23-.754 0-.252-.07-.416-.207-.496-.14-.078-.32-.1-.542-.063-.222.036-.47.093-.743.171a6.032 6.032 0 0 1-.815.176c-.27.039-.515.04-.737.006-.223-.035-.403-.165-.542-.39-.138-.226-.207-.547-.207-.966 0-.82.266-1.63.798-2.432a6.048 6.048 0 0 1 2.039-1.918c.827-.477 1.495-.648 2.006-.512.51.137.776.662.798 1.578l-2.034 1.175c-.029-.301-.118-.494-.267-.58-.15-.085-.341-.06-.574.075M103.94 344.246l1.159-.67c.284-.163.508-.389.672-.676.164-.287.246-.588.246-.901 0-.314-.084-.523-.251-.627-.168-.104-.39-.076-.667.084l-1.159.669v2.121zm3.98-3.353c0 .595-.186 1.275-.558 2.042-.197.398-.49.8-.88 1.205s-.851.761-1.383 1.068l-1.159.67v3.426l-1.87 1.08v-8.81l3.029-1.75c.89-.513 1.582-.65 2.077-.41.496.242.744.735.744 1.48zM111.21 341.992l1.815-1.048-.908-2.613-.907 3.661zm2.711 1.547l-.426-1.235-2.755 1.592-.427 1.727-1.99 1.149 2.668-10.376 2.274-1.314 2.656 7.301-2 1.156zM117.534 340.253c-.761-.409-1.142-1.266-1.142-2.572 0-1.305.38-2.602 1.142-3.892.762-1.289 1.693-2.25 2.793-2.887.853-.492 1.61-.67 2.274-.535.663.136 1.126.588 1.389 1.357l-2.23 1.288c-.292-.476-.759-.529-1.4-.158a3.96 3.96 0 0 0-1.514 1.565 4.437 4.437 0 0 0-.552 2.164c0 .77.184 1.278.552 1.525.368.248.873.187 1.514-.184.641-.37 1.108-.961 1.4-1.775l2.23-1.288a8.273 8.273 0 0 1-1.389 2.961c-.663.902-1.42 1.599-2.274 2.092-1.1.635-2.031.749-2.793.34M129.838 325.51v1.63l-2.777 1.605v1.895l2.449-1.415v1.632l-2.449 1.414v2.046l2.777-1.604v1.632l-4.646 2.684v-8.836zM90.384 364.953a1.681 1.681 0 0 0-.574.545c-.149.229-.224.477-.224.745 0 .267.07.443.208.526.138.083.319.104.541.064.222-.04.47-.1.743-.179a6.95 6.95 0 0 1 .815-.181 2.24 2.24 0 0 1 .738-.006c.222.039.403.171.541.397.138.225.208.551.208.978 0 .744-.265 1.535-.793 2.371a5.953 5.953 0 0 1-2.088 2.004c-.864.498-1.56.662-2.088.49-.528-.171-.792-.697-.792-1.575l1.99-1.15c.05.674.363.844.94.512.269-.156.48-.36.633-.611a1.44 1.44 0 0 0 .23-.754c0-.251-.07-.416-.208-.495-.138-.079-.319-.1-.541-.064-.222.036-.47.094-.743.172a6.041 6.041 0 0 1-.815.176c-.27.038-.515.04-.738.005-.222-.034-.403-.164-.541-.39-.138-.225-.207-.547-.207-.966 0-.82.265-1.63.798-2.431a6.051 6.051 0 0 1 2.038-1.918c.828-.478 1.496-.649 2.006-.512.51.136.776.662.798 1.578l-2.033 1.174c-.03-.3-.118-.494-.268-.58-.15-.084-.34-.06-.574.075M99.688 358.01l1.869-1.08v8.811l-1.87 1.08v-3.652l-2.962 1.711v3.653l-1.87 1.08v-8.811l1.87-1.08v3.527l2.963-1.712zM105.361 360.432l1.815-1.049-.908-2.614-.907 3.663zm2.711 1.546l-.426-1.235-2.755 1.592-.426 1.727-1.99 1.149 2.668-10.376 2.273-1.314 2.657 7.301-2 1.156zM112.86 352.033v2.121l1.16-.67c.284-.164.508-.389.672-.676.164-.287.246-.588.246-.902 0-.313-.084-.522-.252-.626-.167-.104-.39-.076-.666.084l-1.16.669zm0 3.753v3.426l-1.869 1.08v-8.81l3.029-1.75c.889-.514 1.58-.65 2.077-.409.495.24.743.734.743 1.478 0 .51-.135 1.087-.404 1.727-.27.642-.711 1.24-1.323 1.794l1.88 2.503-2.186 1.263-1.728-2.428-.218.126zM118.294 356.074v-8.811l1.87-1.08v8.81zM126.8 342.325l1.868-1.08v8.836l-1.869 1.08-3.127-3.754v5.56l-1.869 1.08v-8.836l1.87-1.08 3.126 3.754zM131.003 347.534c-.762-.409-1.143-1.266-1.143-2.572 0-1.305.381-2.602 1.143-3.891.761-1.29 1.692-2.252 2.793-2.888.852-.492 1.61-.67 2.274-.535.663.136 1.126.588 1.388 1.357l-2.23 1.288c-.292-.475-.758-.528-1.4-.158a3.962 3.962 0 0 0-1.513 1.565 4.438 4.438 0 0 0-.553 2.164c0 .77.184 1.278.553 1.526.367.247.861.192 1.48-.166a3.248 3.248 0 0 0 1.089-1.01c.28-.418.468-.867.562-1.349l-2.164 1.25v-1.631l4.176-2.412v1.631c-.139.884-.52 1.853-1.148 2.91a8.048 8.048 0 0 1-1.11 1.456 6.29 6.29 0 0 1-1.404 1.126c-1.1.636-2.032.749-2.793.34M28.287 340.163l17.07 9.86-.503-2.026-16.063-9.28-.504 1.446zm13.073 16.231l-9.073-5.24v3.471l9.073 5.24v-3.471zm13.609 2.653l-3.024 19.085-30.243-17.469-3.025-22.579 36.292 20.963zM31.817 330.05l-.504 1.446 11.02 6.365-.505-2.027-10.011-5.784zm-1.888-2.825l13.786 7.963 4.033 16.217 3.186 1.84-5.038-20.27-18.146-10.481-5.04 14.448 3.186 1.841 4.033-11.558zm-.633 10.05l15.053 8.695-.503-2.027-14.047-8.114-.503 1.445zm1.512-4.335l12.03 6.948.503 2.027-13.037-7.53.504-1.445z"/>
        <path fill="#111D28" fill-opacity=".1" d="M250.484 480.47c4.754 2.746 4.754 7.239 0 9.985L189.05 525.94c-4.753 2.745-12.532 2.745-17.285 0l-61.928-35.772c-4.754-2.745-4.754-7.239 0-9.984l61.433-35.486c4.754-2.746 12.532-2.746 17.286 0l61.928 35.771z"/>
        <path fill="#C2CBD3" d="M180.405 417.088c-3.132 0-6.264-.687-8.64-2.06l-61.928-35.771c-2.317-1.338-3.496-3.091-3.554-4.855v87.864c.058 1.764 1.237 3.517 3.554 4.855l61.928 35.772c2.376 1.372 5.508 2.059 8.64 2.06v-87.865z"/>
        <path fill="#98A7B4" d="M180.405 417.088c3.134 0 6.268-.686 8.645-2.06l61.434-35.485c2.442-1.41 3.62-3.282 3.553-5.14v87.863c.067 1.86-1.11 3.73-3.553 5.14l-61.434 35.487c-2.377 1.373-5.51 2.06-8.645 2.06v-87.865z"/>
        <path fill="#EBF0F3" d="M250.484 369.558c4.754 2.746 4.754 7.239 0 9.985l-61.434 35.486c-4.753 2.745-12.532 2.745-17.285 0l-61.928-35.772c-4.754-2.746-4.754-7.239 0-9.984l61.433-35.486c4.754-2.746 12.532-2.746 17.286 0l61.928 35.771z"/>
        <path fill="#2E3F53" d="M207.825 436.346v2.12l1.16-.668c.283-.165.507-.39.671-.678a1.79 1.79 0 0 0 .246-.901c0-.314-.084-.523-.251-.626-.168-.105-.39-.077-.667.083l-1.159.67zm0 3.752v3.427l-1.87 1.08v-8.811l3.03-1.75c.888-.513 1.58-.649 2.076-.408.496.24.744.734.744 1.478 0 .51-.136 1.086-.405 1.727-.27.641-.71 1.239-1.323 1.793l1.88 2.504-2.186 1.263-1.727-2.429-.219.126zM213.258 440.386v-8.81l1.87-1.08v8.81zM218.637 435.648l.831-.48a4.424 4.424 0 0 0 1.683-1.726c.409-.737.613-1.529.613-2.374 0-.845-.204-1.4-.613-1.667-.408-.266-.969-.193-1.683.22l-.83.48v5.547zm.831-7.659c1.224-.707 2.23-.88 3.017-.52.787.362 1.18 1.193 1.18 2.494 0 1.301-.393 2.59-1.18 3.864-.787 1.275-1.793 2.265-3.017 2.973l-2.7 1.56v-8.811l2.7-1.56zM229.493 422.173v1.632l-2.777 1.604v1.895l2.449-1.415v1.632l-2.45 1.415v2.045l2.778-1.604v1.632l-4.647 2.684v-8.836zM195.69 458.353a1.681 1.681 0 0 0-.573.545c-.15.228-.224.477-.224.744 0 .268.069.444.207.527.139.083.32.104.541.063.223-.04.47-.1.744-.178a6.95 6.95 0 0 1 .814-.182 2.24 2.24 0 0 1 .738-.005c.223.038.403.17.541.396s.208.552.208.978c0 .745-.264 1.536-.792 2.372a5.953 5.953 0 0 1-2.088 2.003c-.864.5-1.56.663-2.089.49-.528-.17-.792-.696-.792-1.575l1.99-1.149c.05.674.364.844.94.511.27-.155.48-.359.634-.61a1.44 1.44 0 0 0 .23-.754c0-.252-.07-.416-.208-.495-.14-.08-.32-.1-.542-.064a6.63 6.63 0 0 0-.743.171 6.042 6.042 0 0 1-.815.176c-.27.039-.515.04-.737.006-.223-.035-.403-.165-.542-.39-.138-.226-.207-.547-.207-.966 0-.82.266-1.63.798-2.431a6.051 6.051 0 0 1 2.039-1.919c.827-.477 1.495-.648 2.006-.512.51.137.776.663.798 1.579l-2.034 1.174c-.029-.301-.118-.494-.267-.58-.15-.084-.341-.06-.574.075M204.994 451.41l1.87-1.08v8.811l-1.87 1.08v-3.652l-2.963 1.711v3.652l-1.87 1.08v-8.81l1.87-1.08v3.526l2.963-1.71zM210.667 453.831l1.815-1.048-.907-2.614-.908 3.662zm2.712 1.547l-.427-1.235-2.755 1.591-.426 1.728-1.99 1.149 2.668-10.377 2.274-1.313 2.656 7.301-2 1.156zM218.167 445.433v2.12l1.16-.669c.283-.164.507-.39.671-.677.164-.287.246-.587.246-.901 0-.314-.084-.523-.251-.627-.168-.104-.39-.076-.667.084l-1.159.67zm0 3.752v3.427l-1.87 1.08v-8.81l3.03-1.75c.888-.514 1.58-.65 2.076-.409.496.24.743.733.743 1.478 0 .51-.134 1.086-.404 1.727s-.71 1.239-1.323 1.794l1.88 2.503-2.186 1.263-1.727-2.429-.219.126zM223.6 449.473v-8.81l1.87-1.08v8.81zM232.106 435.725l1.869-1.08v8.835l-1.87 1.08-3.126-3.753v5.56l-1.87 1.08v-8.836l1.87-1.08 3.127 3.754zM236.309 440.934c-.761-.41-1.143-1.267-1.143-2.572 0-1.305.382-2.603 1.143-3.892.761-1.289 1.693-2.251 2.793-2.887.853-.493 1.61-.67 2.274-.535.663.136 1.126.588 1.388 1.356l-2.23 1.289c-.292-.476-.758-.529-1.399-.159a3.962 3.962 0 0 0-1.514 1.565 4.438 4.438 0 0 0-.552 2.164c0 .77.184 1.279.552 1.526.368.248.862.193 1.481-.165a3.248 3.248 0 0 0 1.088-1.011c.28-.418.468-.867.563-1.348l-2.165 1.25v-1.632l4.176-2.412v1.632c-.138.883-.52 1.853-1.148 2.91a8.048 8.048 0 0 1-1.109 1.456 6.29 6.29 0 0 1-1.405 1.125c-1.1.636-2.032.75-2.793.34M128.135 423.8l-3.417-1.974c-.428-.248-.775-.05-.775.442v.91c0 1.413 1.436 2.592 2.507 3.21l1.685-2.589zm28.387 27.973c0-1.474-1.043-3.274-2.327-4.015-1.285-.742-2.327-.148-2.327 1.327 0 1.475 1.042 3.274 2.327 4.016 1.284.742 2.327.147 2.327-1.328zm-3.194-9.908s-1.148-3.915-2.53-7.057c-.314-.712-.8-1.356-1.349-1.787-2.344-1.839-4.398-3.18-6.89-4.62-2.491-1.439-4.545-2.47-6.89-3.34-.549-.204-1.034-.122-1.347.23-1.383 1.544-2.53 4.134-2.53 4.134 2.543 2.027 6.684 4.747 10.767 7.106 4.084 2.358 8.224 4.422 10.769 5.334zm-4.563 7.209c0-.492-.347-1.091-.776-1.339l-10.86-6.273c-.428-.247-.775-.049-.775.443 0 .491.347 1.091.776 1.338l10.86 6.273c.428.248.775.05.775-.442zm-15.514-10.743c0-1.474-1.042-3.273-2.327-4.015-1.285-.742-2.327-.148-2.327 1.327 0 1.475 1.042 3.274 2.327 4.016s2.327.147 2.327-1.328zm24.914 9.059c.991 2.685 1.468 4.859 1.468 7.377 0 2.44-.616 4.156-1.56 6.19v3.29c0 .983-.695 1.38-1.551.884l-2.327-1.344c-.856-.494-1.552-1.694-1.552-2.677v-1.781l-20.168-11.65v1.781c0 .984-.695 1.38-1.551.885l-2.327-1.344c-.857-.495-1.551-1.694-1.551-2.677v-3.29c-.944-3.123-1.56-5.55-1.56-7.99 0-2.52.477-4.143 1.468-5.682 1.286-1.995 2.871-4.492 4.545-6.729 1.285-1.72 1.959-1.91 3.534-1.323 2.377.883 4.528 1.965 7.526 3.697 3 1.732 5.15 3.135 7.526 4.997 1.576 1.235 2.25 2.202 3.534 5.406 1.674 4.171 3.26 8.5 4.546 11.98zm2.236-4.953c.428.247.775.847.775 1.339v.91c0 1.412-1.436.931-2.507.313l-1.685-4.535 3.417 1.973zM73.427 314.932c-2.017 0-3.559-.477-4.267-.886l-57.442-33.18 56.948-32.896c.708-.409 2.25-.886 4.267-.886 2.017 0 3.559.477 4.267.886l57.442 33.18-56.948 32.896c-.708.409-2.25.886-4.267.886"/>
        <g>
            <path fill="#0F7CE8" d="M100.016 223.316L72.364 239.43v-32.026l27.652-16.114z"/>
            <path fill="#40A0FF" d="M72.364 207.404L44.71 191.29l27.48-16.013 27.653 16.114z"/>
            <path fill="#1A82FF" d="M72.364 239.43L44.71 223.316V191.29l27.653 16.114z"/>
            <path fill="#FFF" d="M72.98 193.118c1.208-.704.28-1.637-.237-2.466-.285-.52.515-.9 1.408-.437.496.256.84.617 1.123.96l1.132-.422c-.358-.39-.748-.699-1.147-.944l.573-.334-.566-.33-.601.35c-1.253-.555-2.529-.498-3.296-.05-1.373.8.03 1.862.314 2.311.4.606-.398.916-1.197.622-.692-.255-1.19-.804-1.523-1.242l-1.183.39c.246.446.714.88 1.29 1.229l-.562.327.567.33.593-.345c1.07.47 2.346.615 3.312.05m5.664-5.941c-3.755-2.189-9.825-2.2-13.557-.025-3.732 2.175-3.713 5.712.042 7.9 3.756 2.188 9.826 2.2 13.557.025 3.732-2.175 3.713-5.712-.042-7.9m-1.126.656c3.124 1.82 3.14 4.774.035 6.583-3.105 1.81-8.173 1.8-11.297-.02-3.125-1.821-3.14-4.774-.036-6.584 3.105-1.81 8.173-1.8 11.298.02"/>
            <path fill="#0F7CE8" d="M71.49 277.563l-27.653 16.114V261.65l27.652-16.114z"/>
            <path fill="#40A0FF" d="M43.837 261.65l-27.653-16.113 27.48-16.013 27.653 16.114z"/>
            <path fill="#1A82FF" d="M43.837 293.677l-27.653-16.114v-32.026l27.653 16.114z"/>
            <path fill="#FFF" d="M41.532 240.769c4.012-.923 7.776 1.649 5.617 3.804.259-1.958-2.276-3.662-5.617-3.804m-2.304-.092c2.275-1.325 5.989-1.318 8.277.015 2.289 1.334 2.301 3.497.026 4.823-2.275 1.326-5.988 1.319-8.277-.015-2.288-1.334-2.3-3.498-.026-4.823m6.06 10.782l-.019-3.54c1.515-.194 2.953-.634 4.127-1.317 3.297-1.922 3.28-5.057-.037-6.99-3.318-1.934-8.699-1.943-11.996-.022-3.296 1.921-3.28 5.057.037 6.99 1.123.655 2.482 1.088 3.916 1.302l.019 3.57c.01 1.524 3.962 1.532 3.953.007"/>
            <path fill="#0F7CE8" d="M128.977 284.225l-27.652 16.114v-21.71l27.652-16.113z"/>
            <path fill="#40A0FF" d="M101.325 278.63l-27.653-16.114 27.48-16.013 27.653 16.114z"/>
            <path fill="#1A82FF" d="M101.325 300.339l-27.653-16.114v-21.709l27.653 16.114z"/>
            <path fill="#FFF" d="M93.45 263.278l8.149 4.749 1.905-1.11-8.149-4.749-1.905 1.11zm3.81-2.22l8.15 4.748 1.905-1.11-8.149-4.749-1.905 1.11zm5.717-3.331l-1.905 1.11 8.149 4.749 1.905-1.11-8.15-4.75zm-1.438-.838l-1.917-1.117-1.906 1.11 1.917 1.117 1.906-1.11zm-3.811 2.22l-1.917-1.117-1.906 1.11 1.918 1.118 1.905-1.11zm-5.716 3.331l-1.917-1.117 1.905-1.11 1.917 1.117-1.905 1.11z"/>
            <g transform="translate(72.645 287.592)">
                <mask id="b" fill="#fff">
                    <use xlink:href="#a"/>
                </mask>
                <path fill="#0F7CE8" d="M27.806 32.148L.153 48.262V16.236L27.806.122z" mask="url(#b)"/>
            </g>
            <path fill="#40A0FF" d="M72.798 303.827l-27.653-16.113 27.48-16.013 27.653 16.113z"/>
            <g transform="translate(44.9 287.592)">
                <mask id="d" fill="#fff">
                    <use xlink:href="#c"/>
                </mask>
                <path fill="#1A82FF" d="M27.898 48.262L.245 32.148V.122l27.653 16.114z" mask="url(#d)"/>
            </g>
            <path fill="#FFF" d="M74.265 291.538c-1.321-1.229-2.573-2.36-.348-2.755 6.771-1.203 7.403-3.587 4.918-5.035-2.535-1.477-6.675-1.03-8.641 2.866-.663 1.314-2.665.55-4.729-.204-1.884-.688-2.698-.28-4.015.493l-.494.29 11.965 6.972.482-.279c1.339-.773 2.047-1.246.862-2.348"/>
        </g>
        <path fill="#2E3F53" d="M284.747 315c-2.018 0-3.56-.479-4.27-.888L223 280.857l56.983-32.969c.708-.41 2.252-.888 4.27-.888s3.56.479 4.27.888L346 281.143l-56.983 32.969c-.709.41-2.252.888-4.27.888"/>
        <g>
            <path fill="#0F7CE8" d="M312.861 264.72l-27.652 16.25v-32.295l27.652-16.248z"/>
            <path fill="#40A0FF" d="M285.209 248.675l-27.653-16.248 27.48-16.147 27.653 16.248z"/>
            <path fill="#1A82FF" d="M285.209 280.97l-27.653-16.25v-32.293l27.653 16.248z"/>
            <path fill="#FFF" d="M285.825 234.27c1.208-.71.28-1.651-.237-2.487-.285-.524.515-.907 1.408-.44.496.258.84.622 1.123.967l1.132-.425a5.382 5.382 0 0 0-1.147-.952l.573-.337-.566-.333-.601.353c-1.253-.56-2.529-.502-3.296-.05-1.373.806.03 1.877.314 2.33.4.611-.398.924-1.197.628-.692-.257-1.19-.811-1.523-1.253l-1.183.393c.246.45.714.889 1.29 1.24l-.562.33.567.332.593-.348c1.07.475 2.346.62 3.312.051m5.664-5.991c-3.755-2.207-9.825-2.218-13.557-.025-3.732 2.192-3.713 5.76.042 7.966 3.756 2.206 9.826 2.218 13.558.025 3.731-2.193 3.712-5.76-.043-7.966m-1.126.661c3.124 1.836 3.14 4.814.035 6.639-3.105 1.824-8.173 1.815-11.297-.02-3.125-1.837-3.14-4.815-.036-6.64 3.105-1.824 8.173-1.815 11.298.021"/>
            <path fill="#0F7CE8" d="M284.334 284.67l-27.652 16.248v-21.072l27.652-16.249z"/>
            <path fill="#40A0FF" d="M256.682 279.846l-27.653-16.249 27.48-16.147 27.653 16.249z"/>
            <path fill="#1A82FF" d="M256.682 300.918l-27.653-16.249v-21.072l27.653 16.249z"/>
            <path fill="#FFF" d="M254.377 258.79c4.012-.931 7.776 1.662 5.617 3.836.259-1.975-2.276-3.693-5.617-3.837m-2.304-.092c2.275-1.337 5.989-1.33 8.277.015 2.289 1.345 2.301 3.526.026 4.863-2.275 1.337-5.988 1.33-8.277-.015-2.288-1.345-2.3-3.527-.026-4.863m6.06 10.872l-.019-3.57c1.515-.195 2.953-.639 4.127-1.328 3.297-1.938 3.28-5.1-.037-7.049-3.318-1.95-8.699-1.959-11.995-.021-3.297 1.937-3.282 5.099.036 7.048 1.123.66 2.482 1.098 3.916 1.313l.019 3.6c.01 1.536 3.962 1.545 3.953.007"/>
            <path fill="#0F7CE8" d="M341.823 284.143L314.17 300.39V279.32l27.653-16.248z"/>
            <path fill="#40A0FF" d="M314.17 279.32l-27.653-16.25 27.48-16.146 27.653 16.248z"/>
            <path fill="#1A82FF" d="M314.17 300.391l-27.653-16.248V263.07l27.653 16.248z"/>
            <path fill="#FFF" d="M306.295 263.84l8.149 4.788 1.905-1.12-8.149-4.788-1.905 1.12zm3.81-2.24l8.15 4.788 1.905-1.12-8.149-4.788-1.905 1.12zm5.717-3.359l-1.905 1.12 8.149 4.788 1.905-1.12-8.15-4.788zm-1.438-.845l-1.917-1.126-1.906 1.12 1.917 1.126 1.906-1.12zm-3.81 2.24l-1.918-1.127-1.906 1.12 1.918 1.126 1.905-1.12zm-5.717 3.358l-1.917-1.126 1.905-1.12 1.917 1.127-1.905 1.12z"/>
            <g transform="translate(285.355 288.356)">
                <mask id="f" fill="#fff">
                    <use xlink:href="#e"/>
                </mask>
                <path fill="#0F7CE8" d="M27.94 32.417L.288 48.667V16.371L27.94.123z" mask="url(#f)"/>
            </g>
            <path fill="#40A0FF" d="M285.643 304.728l-27.653-16.249 27.48-16.147 27.653 16.249z"/>
            <g transform="translate(257.9 288.356)">
                <mask id="h" fill="#fff">
                    <use xlink:href="#g"/>
                </mask>
                <path fill="#1A82FF" d="M27.743 48.666L.09 32.417V.123l27.653 16.249z" mask="url(#h)"/>
            </g>
            <path fill="#FFF" d="M287.11 292.336c-1.321-1.24-2.573-2.38-.348-2.779 6.771-1.212 7.403-3.617 4.918-5.077-2.535-1.49-6.675-1.04-8.641 2.89-.663 1.326-2.665.555-4.729-.205-1.884-.694-2.698-.283-4.015.497l-.494.292 11.965 7.031.483-.281c1.338-.78 2.046-1.257.861-2.368"/>
        </g>
        <g>
            <path fill="#FFF" d="M158.085 107.63l-6.217 3.535a30.83 30.83 0 0 1 .376 4.847c0 9.002-3.695 12.248-9.883 8.685-2.58-1.486-4.758-3.685-6.4-6.43l21.541-12.25a42.99 42.99 0 0 0-1.975-4.4c-.312-.6-.639-1.18-.973-1.754l.002-.001c-.044-.076-.09-.15-.134-.225-.1-.168-.196-.34-.297-.505l-.005.003c-3.128-5.14-7.15-9.216-11.759-11.87-5.326-3.067-9.87-3.342-13.138-.794-3.073 2.396-4.766 7.205-4.766 13.54 0 4.21.751 8.605 2.154 12.822l6.251-3.554a31.76 31.76 0 0 1-.328-4.616c0-4.143.737-7.069 2.19-8.696 1.705-1.909 4.346-1.916 7.637-.02 2.563 1.475 4.696 3.628 6.318 6.282l-21.498 12.224a42.89 42.89 0 0 0 2.042 4.588c.154.297.313.588.473.879l.004.008c.185.336.373.667.565.995l.072.124c.06.104.12.21.182.314l.006-.004c3.13 5.21 7.181 9.34 11.836 12.02 5.33 3.07 9.883 3.35 13.166.81 3.091-2.39 4.794-7.193 4.794-13.524 0-4.275-.78-8.747-2.236-13.034M203.995 104.393c-.157-.006-.341.052-.553.174a2.067 2.067 0 0 0-.553.462 2.363 2.363 0 0 0-.36.565c-.085.19-.153.418-.204.68a5.846 5.846 0 0 0-.098.734c-.015.226-.022.489-.022.79 0 .3.007.555.022.764.014.208.047.415.098.62.051.204.119.353.203.447a.484.484 0 0 0 .361.149c.157.006.341-.052.553-.174a2.06 2.06 0 0 0 .553-.463 2.36 2.36 0 0 0 .361-.565c.084-.19.152-.417.203-.68.05-.264.084-.508.098-.734.015-.225.022-.488.022-.79 0-.3-.007-.555-.022-.763a3.645 3.645 0 0 0-.098-.62c-.051-.204-.119-.354-.203-.447a.485.485 0 0 0-.361-.15m-1.992-.662a5.683 5.683 0 0 1 1.44-1.168c.554-.319 1.034-.483 1.439-.49.405-.008.724.13.957.413.234.283.406.658.515 1.125.11.468.164 1.036.164 1.704 0 .668-.054 1.299-.164 1.892a8.243 8.243 0 0 1-.515 1.719 5.528 5.528 0 0 1-.957 1.516 5.693 5.693 0 0 1-1.44 1.167c-.555.32-1.035.483-1.44.49-.404.008-.724-.13-.957-.412-.234-.283-.405-.659-.515-1.126-.11-.468-.164-1.035-.164-1.704 0-.668.055-1.298.164-1.892.11-.593.281-1.166.515-1.718a5.537 5.537 0 0 1 .958-1.516M209.704 100.874v2.117l1.16-.669c.285-.163.51-.388.674-.675.164-.287.246-.587.246-.9 0-.313-.084-.522-.252-.625-.168-.105-.39-.077-.668.083l-1.16.669zm0 3.745v3.421l-1.872 1.078v-8.795l3.032-1.747c.89-.512 1.584-.648 2.08-.408.496.24.745.733.745 1.476 0 .51-.135 1.084-.405 1.724-.27.64-.712 1.237-1.325 1.79l1.883 2.499-2.19 1.26-1.73-2.424-.218.126zM215.145 104.907v-8.795l1.872-1.078v8.795zM219.354 101.287c-.763-.409-1.144-1.265-1.144-2.568 0-1.303.381-2.598 1.144-3.885.762-1.286 1.695-2.247 2.797-2.882.854-.492 1.613-.67 2.277-.534.664.136 1.128.587 1.39 1.354l-2.233 1.286c-.292-.475-.76-.528-1.401-.158a3.96 3.96 0 0 0-1.516 1.562 4.417 4.417 0 0 0-.553 2.16c0 .77.184 1.277.553 1.524.368.247.863.192 1.483-.165a3.251 3.251 0 0 0 1.09-1.01c.28-.416.468-.865.563-1.345l-2.168 1.248v-1.629l4.182-2.408v1.629c-.139.882-.521 1.85-1.15 2.904-.299.507-.67.992-1.11 1.455-.442.463-.911.837-1.407 1.123-1.102.634-2.035.747-2.797.339M227.022 98.068v-8.796l1.872-1.078v8.796zM235.54 84.343l1.871-1.078v8.82l-1.872 1.078-3.13-3.747v5.55l-1.873 1.078v-8.82l1.872-1.078 3.131 3.747zM192.112 128.155l1.16-.668c.285-.164.51-.389.674-.676.164-.286.246-.586.246-.9 0-.313-.084-.521-.252-.625-.168-.104-.39-.076-.668.084l-1.16.668v2.117zm3.985-3.347c0 .594-.186 1.273-.558 2.038-.198.398-.491.799-.882 1.203-.39.405-.852.76-1.385 1.067l-1.16.668v3.42l-1.872 1.078v-8.795l3.032-1.746c.89-.513 1.584-.649 2.08-.408.496.24.745.732.745 1.475zM197.224 121.466l1.872-1.078v7.166l2.332-1.343v1.63l-4.204 2.42zM204.635 122.886l1.817-1.046-.908-2.61-.909 3.656zm2.715 1.544l-.427-1.233-2.759 1.589-.426 1.724-1.993 1.147 2.671-10.358 2.277-1.311 2.66 7.288-2.003 1.154zM209.747 115.883v-1.629l6.065-3.492v1.629l-2.102 1.21v7.166l-1.872 1.078v-7.166zM216.929 118.914v-8.795l5.003-2.88v1.628l-3.131 1.803v1.892l2.343-1.35v1.63l-2.343 1.349v3.645zM228.188 109.85a4.422 4.422 0 0 0 .553-2.16c0-.769-.185-1.276-.553-1.523-.369-.248-.861-.194-1.478.162-.617.354-1.11.868-1.478 1.54a4.42 4.42 0 0 0-.553 2.16c0 .768.184 1.276.553 1.523.369.247.861.193 1.478-.162s1.11-.868 1.478-1.54m-4.27 3.849c-.762-.413-1.144-1.27-1.144-2.574 0-1.302.382-2.598 1.145-3.884.762-1.287 1.696-2.25 2.802-2.886 1.106-.637 2.036-.748 2.791-.336.756.413 1.133 1.271 1.133 2.574s-.38 2.6-1.138 3.888c-.76 1.29-1.69 2.25-2.791 2.886-1.103.634-2.035.745-2.797.332M233.722 102.078v2.117l1.16-.668c.285-.164.51-.389.673-.676.165-.286.247-.586.247-.9 0-.313-.084-.521-.252-.625-.168-.104-.39-.076-.668.084l-1.16.668zm0 3.746v3.42l-1.872 1.078v-8.795l3.032-1.746c.89-.513 1.584-.649 2.08-.408.496.24.744.732.744 1.475 0 .51-.135 1.085-.405 1.724-.27.64-.711 1.237-1.324 1.79l1.883 2.5-2.19 1.26-1.73-2.424-.218.126zM247.865 92.305v8.795l-1.871 1.078v-4.962l-1.785 5.99-1.39.8-1.785-3.934v4.961l-1.872 1.079v-8.796l2.146-1.235 2.211 4.79 2.2-7.33z"/>
            <path fill="#2E3F53" d="M179.936 407c-2.02 0-3.564-.477-4.273-.885l-57.522-33.123 57.027-32.838c.709-.408 2.253-.884 4.273-.884 2.02 0 3.564.476 4.272.884l57.522 33.123-57.027 32.838c-.708.408-2.253.885-4.272.885"/>
        </g>
        <g>
            <g transform="translate(150.32 369.934)">
                <mask id="j" fill="#fff">
                    <use xlink:href="#i"/>
                </mask>
                <path fill="#0F7CE8" d="M28.415 32.048L.188 48.053v-31.81L28.415.238z" mask="url(#j)"/>
            </g>
            <path fill="#40A0FF" d="M150.508 386.178l-28.226-16.005 28.05-15.905 28.227 16.005z"/>
            <g transform="translate(122 369.934)">
                <mask id="l" fill="#fff">
                    <use xlink:href="#k"/>
                </mask>
                <path fill="#1A82FF" d="M28.508 48.053L.282 32.048V.238l28.226 16.005z" mask="url(#l)"/>
            </g>
            <path fill="#FFF" d="M148.156 365.437c4.095-.916 7.937 1.638 5.734 3.779.263-1.945-2.324-3.637-5.734-3.779m-2.352-.091c2.322-1.316 6.113-1.31 8.449.015 2.336 1.325 2.348 3.473.026 4.79-2.322 1.317-6.112 1.31-8.448-.015-2.336-1.324-2.348-3.474-.027-4.79m6.186 10.709l-.02-3.516c1.547-.193 3.015-.63 4.212-1.309 3.366-1.908 3.35-5.022-.037-6.943-3.387-1.92-8.88-1.929-12.245-.02-3.365 1.908-3.349 5.022.038 6.942 1.146.65 2.533 1.08 3.997 1.293l.02 3.546c.01 1.513 4.044 1.522 4.035.007"/>
            <g transform="translate(179.82 386.738)">
                <mask id="n" fill="#fff">
                    <use xlink:href="#m"/>
                </mask>
                <path fill="#0F7CE8" d="M28.477 31.93L.251 47.937v-31.81L28.477.121z" mask="url(#n)"/>
            </g>
            <path fill="#40A0FF" d="M180.07 402.864l-28.226-16.005 28.05-15.904 28.227 16.004z"/>
            <g transform="translate(151.795 386.738)">
                <mask id="p" fill="#fff">
                    <use xlink:href="#o"/>
                </mask>
                <path fill="#1A82FF" d="M28.276 47.935L.049 31.931V.12l28.227 16.005z" mask="url(#p)"/>
            </g>
            <path fill="#FFF" d="M181.568 390.658c-1.349-1.22-2.626-2.344-.356-2.737 6.912-1.194 7.557-3.563 5.02-5.001-2.587-1.467-6.813-1.024-8.82 2.846-.677 1.306-2.72.547-4.826-.202-1.924-.683-2.755-.279-4.1.49l-.503.288 12.213 6.925.492-.277c1.366-.768 2.09-1.237.88-2.332"/>
        </g>
        <g>
            <path fill="#0F7CE8" d="M206.928 315.274l-27.88 16.136v-32.07l27.88-16.134z"/>
            <path fill="#40A0FF" d="M179.047 299.34l-27.881-16.135 27.707-16.034 27.881 16.135z"/>
            <path fill="#1A82FF" d="M179.047 331.41l-27.881-16.136v-32.069l27.881 16.136z"/>
            <path fill="#FFF" d="M179.669 285.035c1.218-.705.281-1.639-.24-2.469-.287-.52.52-.9 1.42-.437.5.257.847.618 1.132.96l1.142-.421a5.41 5.41 0 0 0-1.157-.946l.578-.334-.571-.331-.606.35c-1.263-.555-2.549-.498-3.323-.05-1.384.801.031 1.865.317 2.315.403.607-.402.917-1.207.623-.698-.255-1.2-.805-1.536-1.244l-1.193.39c.249.447.72.882 1.301 1.23l-.566.329.571.33.598-.346c1.078.472 2.366.616 3.34.051m5.71-5.95c-3.786-2.19-9.906-2.202-13.669-.024-3.762 2.177-3.743 5.719.043 7.91s9.907 2.202 13.67.025c3.762-2.177 3.743-5.72-.043-7.91m-1.136.657c3.15 1.823 3.166 4.78.036 6.592-3.131 1.812-8.241 1.802-11.391-.021-3.15-1.823-3.167-4.78-.036-6.592 3.13-1.812 8.24-1.803 11.391.02"/>
            <path fill="#0F7CE8" d="M238.779 368.594l-27.881 16.135v-32.07l27.88-16.134z"/>
            <path fill="#40A0FF" d="M210.898 352.66l-27.881-16.135 27.707-16.035 27.88 16.135z"/>
            <path fill="#1A82FF" d="M210.898 384.729l-27.881-16.136v-32.068l27.88 16.135z"/>
            <path fill="#FFF" d="M202.958 337.288l8.216 4.755 1.921-1.112-8.216-4.755-1.921 1.112zm3.842-2.224l8.216 4.755 1.921-1.112-8.216-4.755-1.921 1.112zm5.763-3.335l-1.92 1.112 8.216 4.754 1.92-1.111-8.216-4.755zm-1.45-.84l-1.933-1.118-1.92 1.112 1.932 1.119 1.922-1.112zm-3.842 2.225l-1.933-1.12-1.921 1.112 1.933 1.12 1.921-1.112zm-5.763 3.335l-1.933-1.119 1.92-1.112 1.934 1.12-1.921 1.11z"/>
        </g>
    </g>
</svg>
